<?xml version="1.0" encoding="UTF-8" standalone="no"?>
<!-- Created with Inkscape (http://www.inkscape.org/) -->

<svg
   width="210mm"
   height="297mm"
   viewBox="0 0 210 297"
   version="1.1"
   id="svg1"
   xml:space="preserve"
   inkscape:version="1.4.1 (93de688d07, 2025-03-30)"
   sodipodi:docname="logo2.svg"
   xmlns:inkscape="http://www.inkscape.org/namespaces/inkscape"
   xmlns:sodipodi="http://sodipodi.sourceforge.net/DTD/sodipodi-0.dtd"
   xmlns="http://www.w3.org/2000/svg"
   xmlns:svg="http://www.w3.org/2000/svg"><sodipodi:namedview
     id="namedview1"
     pagecolor="#ffffff"
     bordercolor="#000000"
     borderopacity="0.25"
     inkscape:showpageshadow="2"
     inkscape:pageopacity="0.0"
     inkscape:pagecheckerboard="0"
     inkscape:deskcolor="#d1d1d1"
     inkscape:document-units="mm"
     inkscape:zoom="1.0141844"
     inkscape:cx="337.21679"
     inkscape:cy="623.65386"
     inkscape:window-width="1920"
     inkscape:window-height="1014"
     inkscape:window-x="0"
     inkscape:window-y="0"
     inkscape:window-maximized="1"
     inkscape:current-layer="layer1" /><defs
     id="defs1" /><g
     inkscape:label="Layer 1"
     inkscape:groupmode="layer"
     id="layer1"><g
       id="g7"
       transform="translate(0,0.52916667)"
       inkscape:export-filename="logo2.png"
       inkscape:export-xdpi="200"
       inkscape:export-ydpi="200"><circle
         style="font-variation-settings:'wght' 400;fill:#4db6ac;fill-opacity:1;stroke:#004d40;stroke-width:2.64583;stroke-opacity:1"
         id="path5"
         cx="124.89882"
         cy="143.10127"
         r="16.696505" /><g
         style="fill:none;fill-opacity:1;stroke:#d32f2f;stroke-opacity:1"
         id="g2"
         transform="matrix(1.216572,0,0,1.216572,110.82912,129.56074)"><path
           d="m 6,4 h 4.5 m 0,0 C 12.9853,4 15,6.01472 15,8.5 15,10.9853 12.9853,13 10.5,13 H 6 l 7,7 M 10.5,4 H 18 M 6,8.5 h 12"
           stroke="#000000"
           stroke-width="2"
           stroke-linecap="round"
           stroke-linejoin="round"
           id="path1-2"
           style="fill:none;fill-opacity:1;stroke:#d32f2f;stroke-opacity:1" /></g></g><rect
       style="font-variation-settings:'wght' 400;fill:#ffffff;fill-opacity:1;stroke:none;stroke-width:2.07352;stroke-opacity:1"
       id="rect5"
       width="54.080635"
       height="41.282406"
       x="98.633751"
       y="157.2466" /><g
       style="fill:#000000;fill-opacity:0;stroke:#d32f2f;stroke-opacity:1"
       id="g1"
       transform="matrix(2.4612138,0,0,2.4612138,96.138733,147.49205)"><path
         d="M 20.8333,9 H 18.2308 C 16.4465,9 15,10.3431 15,12 c 0,1.6569 1.4465,3 3.2308,3 h 2.6025 c 0.0834,0 0.125,0 0.1602,-0.0021 0.5393,-0.0329 0.9688,-0.4317 1.0042,-0.9325 C 22,14.0327 22,13.994 22,13.9167 V 10.0833 C 22,10.006 22,9.96726 21.9977,9.9346 21.9623,9.43384 21.5328,9.03496 20.9935,9.00214 20.9583,9 20.9167,9 20.8333,9 Z"
         stroke="#1c274c"
         stroke-width="1.5"
         id="path2"
         style="fill:#000000;fill-opacity:0;stroke:#d32f2f;stroke-opacity:1" /><path
         d="M 20.965,9 C 20.8873,7.1277 20.6366,5.97975 19.8284,5.17157 18.6569,4 16.7712,4 13,4 H 10 C 6.22876,4 4.34315,4 3.17157,5.17157 2,6.34315 2,8.22876 2,12 2,15.7712 2,17.6569 3.17157,18.8284 4.34315,20 6.22876,20 10,20 h 3 c 3.7712,0 5.6569,0 6.8284,-1.1716 C 20.6366,18.0203 20.8873,16.8723 20.965,15"
         stroke="#1c274c"
         stroke-width="1.5"
         id="path3"
         style="fill:#000000;fill-opacity:0;stroke:#d32f2f;stroke-opacity:1" /><path
         d="m 17.9912,12 h 0.009"
         stroke="#1c274c"
         stroke-width="2"
         stroke-linecap="round"
         stroke-linejoin="round"
         id="path4"
         style="fill:#000000;fill-opacity:0;stroke:#d32f2f;stroke-opacity:1" /></g><g
       style="fill:none;stroke:#01579b;stroke-opacity:1"
       id="g6"
       transform="matrix(1.0802058,0,0,1.0802058,105.39624,163.60336)"><path
         d="M 2,12 C 2,7.28595 2,4.92893 3.46447,3.46447 4.92893,2 7.28595,2 12,2 16.714,2 19.0711,2 20.5355,3.46447 22,4.92893 22,7.28595 22,12 c 0,4.714 0,7.0711 -1.4645,8.5355 C 19.0711,22 16.714,22 12,22 7.28595,22 4.92893,22 3.46447,20.5355 2,19.0711 2,16.714 2,12 Z"
         stroke="#1c274c"
         stroke-width="1.5"
         id="path1-7"
         style="stroke:#01579b;stroke-opacity:1" /><path
         d="m 7,14 2.29289,-2.2929 c 0.39053,-0.3905 1.02371,-0.3905 1.41421,0 l 1.5858,1.5858 c 0.3905,0.3905 1.0237,0.3905 1.4142,0 L 17,10 m 0,0 v 2.5 M 17,10 h -2.5"
         stroke="#1c274c"
         stroke-width="1.5"
         stroke-linecap="round"
         stroke-linejoin="round"
         id="path2-0"
         style="stroke:#01579b;stroke-opacity:1" /></g></g></svg>
